:SAMPLES-PER-SECOND 30
:FULLY-SPECIFIED
:DEGREES
160
root  -30.2003 27.7856 0.414403 -153.036 -88.8569 143.319
RightUpLeg  -53.5428 -12.0638 -7.40357
RightLeg  86.9295 0.330417 2.5625
RightFoot  -18.2663 -0.280866 -2.65776
RightToes  -3.31784e-009 0 -3.6325e-017
Spine  41.0336 -1.00189 3.15403
Spine1  5.66773 0.438418 -2.29117
HEad  -20.9016 5.40794 -6.73869
LeftShoulder1  -0.448359 4.72987 -29.89
LeftArm  -19.8555 8.56292 -31.9561
LeftForeArm  19.8891 -28.198 -4.99364
LeftHand  -0.0393999 8.87761 0.668919
RightShoulder  -0.757355 -5.79997 26.2224
RightArm  2.24058 -13.4204 37.8847
RightForeArm  8.49775 23.4081 4.54673
RightHand  -0.738411 8.66999 -6.45685
LeftUpLeg  -52.2318 14.6242 7.45492
LeftLeg  87.1239 -0.189355 3.80935
LeftFoot  -18.6931 0.590488 7.36647
LeftToes  1.28511e-009 -3.60458e-011 6.16399e-011
161
root  -30.6709 25.8831 0.287344 -142.265 -89.0611 131.117
RightUpLeg  -56.4686 -10.3934 -8.38488
RightLeg  95.4646 0.121257 1.45625
RightFoot  -22.1529 -0.231759 -0.859076
RightToes  -3.31784e-009 0 -3.6325e-017
Spine  45.9682 -0.852557 2.22243
Spine1  4.46748 0.27159 -1.56986
HEad  -22.926 3.84571 -6.80226
LeftShoulder1  0.278348 2.61264 -25.9166
LeftArm  -18.4224 -6.78313 -39.0843
LeftForeArm  23.3823 -23.6352 -3.81714
LeftHand  -0.122686 10.3166 -0.948345
RightShoulder  -0.302942 -4.50605 22.916
RightArm  0.577578 1.27295 43.7835
RightForeArm  13.3243 27.8191 5.31798
RightHand  -0.695706 7.77716 -6.48338
LeftUpLeg  -55.2638 12.6691 8.82468
LeftLeg  95.4244 -0.94043 5.152
LeftFoot  -21.6849 0.695846 6.24832
LeftToes  1.28511e-009 -3.60458e-011 6.16399e-011
162
root  -31.0216 24.3024 0.248324 -143.097 -89.9162 131.781
RightUpLeg  -59.7865 -9.71059 -8.70593
RightLeg  101.979 0.199258 0.560966
RightFoot  -24.9406 -0.102909 0.574367
RightToes  -3.31784e-009 0 -3.6325e-017
Spine  49.1085 -1.1921 1.9814
Spine1  3.57559 -0.3524 -0.637387
HEad  -25.918 3.24123 -6.99504
LeftShoulder1  0.803082 0.643624 -21.4055
LeftArm  -19.8701 -17.7958 -43.2833
LeftForeArm  25.293 -26.055 -4.2397
LeftHand  0.0449164 7.06034 4.514
RightShoulder  0.0841137 -3.17881 20.5682
RightArm  -5.50084 13.4835 45.7773
RightForeArm  16.0609 37.4454 7.62172
RightHand  -0.875624 7.9986 -7.93274
LeftUpLeg  -59.09 10.3576 10.1163
LeftLeg  101.878 -1.78124 6.0607
LeftFoot  -24.0099 0.702489 5.01103
LeftToes  1.28511e-009 -3.60458e-011 6.16399e-011
163
root  -31.3197 23.1344 0.188838 -12.0489 -88.9043 1.19318
RightUpLeg  -62.634 -9.71721 -9.11371
RightLeg  106.696 0.394032 -0.112785
RightFoot  -27.1813 -0.0411735 1.03394
RightToes  -3.31784e-009 0 -3.6325e-017
Spine  49.794 -1.28664 1.6193
Spine1  5.41206 -0.767869 0.145819
HEad  -28.6952 2.50483 -6.59358
LeftShoulder1  0.855078 0.151363 -18.9653
LeftArm  -20.8616 -30.9427 -43.8469
LeftForeArm  26.8665 -30.0859 -5.07642
LeftHand  0.0174984 6.22434 5.93579
RightShoulder  0.215588 -2.65176 19.3731
RightArm  -9.58881 26.3357 45.2909
RightForeArm  16.217 45.5721 10.28
RightHand  -1.0012 8.84075 -8.51993
LeftUpLeg  -62.5803 8.31066 10.8378
LeftLeg  106.412 -2.54413 6.73759
LeftFoot  -25.227 0.686113 4.37718
LeftToes  1.28511e-009 -3.60458e-011 6.16399e-011
164
root  -31.5723 22.304 0.124717 -60.1058 -88.7142 48.5287
RightUpLeg  -63.8692 -8.61957 -10.68
RightLeg  110.292 0.527515 -0.361283
RightFoot  -28.5824 0.0278986 1.46439
RightToes  -3.31784e-009 0 -3.6325e-017
Spine  52.7018 -0.504227 0.291492
Spine1  4.38637 -0.592813 0.47459
HEad  -28.9301 1.72604 -6.20563
LeftShoulder1  0.924506 -0.512347 -16.2597
LeftArm  -24.3064 -38.5946 -44.5086
LeftForeArm  31.1812 -36.765 -6.48314
LeftHand  0.0345808 6.39543 7.00111
RightShoulder  0.306698 -2.09125 15.7533
RightArm  -13.2164 33.803 46.1153
RightForeArm  23.1906 51.931 12.5212
RightHand  -1.0399 8.38322 -9.12618
LeftUpLeg  -63.3055 7.76516 10.5676
LeftLeg  109.497 -3.15318 7.21293
LeftFoot  -26.4212 0.722809 4.25958
LeftToes  1.28511e-009 -3.60458e-011 6.16399e-011
165
root  -31.8548 21.7635 0.0995359 -54.5367 -88.4299 43.139
RightUpLeg  -64.906 -8.2961 -11.181
RightLeg  112.651 0.698185 -0.670581
RightFoot  -29.8485 0.124198 2.00638
RightToes  -3.31784e-009 0 -3.6325e-017
Spine  53.601 -0.622279 0.212769
Spine1  4.31406 -0.545258 -0.235731
HEad  -29.4261 1.21025 -5.58785
LeftShoulder1  0.884544 -0.809682 -13.5034
LeftArm  -25.6784 -44.8701 -43.8776
LeftForeArm  31.8575 -42.5258 -8.14391
LeftHand  0.0122419 6.03479 6.71112
RightShoulder  0.45672 -1.11024 11.9426
RightArm  -15.1924 37.416 45.8297
RightForeArm  24.3536 57.1346 15.3752
RightHand  -1.12005 7.49007 -10.4083
LeftUpLeg  -64.485 7.24717 10.8959
LeftLeg  111.736 -3.50473 7.23032
LeftFoot  -27.3888 0.680487 3.65594
LeftToes  1.28511e-009 -3.60458e-011 6.16399e-011
166
root  -32.1949 21.5897 0.110595 -35.64 -88.3739 25.0774
RightUpLeg  -65.2623 -8.51633 -11.068
RightLeg  113.654 0.764883 -0.763024
RightFoot  -31.2451 0.228401 2.5131
RightToes  -3.31784e-009 0 -3.6325e-017
Spine  53.7714 -0.886448 0.779045
Spine1  4.01516 -0.519757 -0.341353
HEad  -29.8835 0.459207 -5.19108
LeftShoulder1  0.880056 -0.905529 -12.908
LeftArm  -25.0823 -49.1232 -42.6489
LeftForeArm  34.2495 -48.7889 -10.2689
LeftHand  -0.0258357 5.31654 6.57346
RightShoulder  0.431139 -1.30374 12.7081
RightArm  -14.5856 40.6834 43.2293
RightForeArm  25.3849 61.2231 18.3791
RightHand  -0.998704 8.15707 -8.89152
LeftUpLeg  -65.3244 6.73529 11.3311
LeftLeg  112.833 -3.75986 7.4104
LeftFoot  -28.3453 0.634051 3.09931
LeftToes  1.28511e-009 -3.60458e-011 6.16399e-011
167
root  -32.5032 21.8165 0.104128 -40.2422 -88.0911 30.2829
RightUpLeg  -64.4782 -8.28048 -11.4209
RightLeg  113.347 0.887993 -1.04029
RightFoot  -32.2294 0.290544 2.76854
RightToes  -3.31784e-009 0 -3.6325e-017
Spine  53.7058 -0.785557 0.551791
Spine1  4.54438 -0.6004 -0.224427
HEad  -31.1035 0.0862446 -5.34186
LeftShoulder1  0.800721 -0.663282 -12.1007
LeftArm  -24.6126 -50.7308 -43.8528
LeftForeArm  38.5493 -54.5887 -12.538
LeftHand  -0.0516318 4.81208 6.2661
RightShoulder  0.459772 -1.22315 13.3374
RightArm  -13.1674 41.3746 42.7421
RightForeArm  32.2769 64.3832 20.5761
RightHand  -0.807293 8.03682 -7.35131
LeftUpLeg  -64.6152 6.5809 10.9604
LeftLeg  112.347 -3.7911 7.64694
LeftFoot  -29.0186 0.591265 2.67537
LeftToes  1.28511e-009 -3.60458e-011 6.16399e-011
168
root  -32.7345 22.4838 0.0662407 -41.8383 -87.5544 33.3333
RightUpLeg  -63.7108 -8.39131 -11.3596
RightLeg  111.386 1.15693 -1.79178
RightFoot  -32.3418 0.269087 2.63991
RightToes  -3.31784e-009 0 -3.6325e-017
Spine  53.1199 -0.746577 0.315491
Spine1  4.31885 -0.641458 -0.276642
HEad  -31.8114 -0.0047858 -5.32249
LeftShoulder1  0.792465 -0.589678 -12.2561
LeftArm  -22.0078 -50.7934 -45.6787
LeftForeArm  38.646 -56.6434 -13.6966
LeftHand  -0.0452398 4.95435 6.86184
RightShoulder  0.504565 -1.01043 13.4
RightArm  -9.90103 39.6588 43.7951
RightForeArm  35.6787 64.9594 20.7831
RightHand  -0.847728 6.89614 -8.32604
LeftUpLeg  -63.9164 6.7629 10.0477
LeftLeg  110.183 -3.48633 7.75944
LeftFoot  -29.0858 0.598775 2.71242
LeftToes  1.28511e-009 -3.60458e-011 6.16399e-011
169
root  -32.9951 23.4545 0.0379461 -39.3657 -87.2134 32.5234
RightUpLeg  -62.3122 -8.39998 -10.9484
RightLeg  108.195 1.34346 -2.6528
RightFoot  -32.1163 0.285494 2.75117
RightToes  -3.31784e-009 0 -3.6325e-017
Spine  52.5318 -0.801805 0.531941
Spine1  3.77344 -0.599677 -0.306907
HEad  -33.0396 -0.174986 -5.22522
LeftShoulder1  0.884256 -1.0347 -12.3942
LeftArm  -19.0404 -49.4041 -46.4998
LeftForeArm  38.3798 -55.9312 -13.3184
LeftHand  -0.0188725 5.4348 6.96633
RightShoulder  0.491081 -1.19788 14.6252
RightArm  -5.73223 37.3742 44.7985
RightForeArm  33.069 62.3362 18.5228
RightHand  -0.841182 7.20063 -8.08068
LeftUpLeg  -62.6 6.7856 9.31981
LeftLeg  106.871 -3.03202 7.95954
LeftFoot  -28.9434 0.591831 2.69651
LeftToes  1.28511e-009 -3.60458e-011 6.16399e-011
170
root  -33.2271 24.7483 0.00556208 -46.6852 -87.2041 41.3834
RightUpLeg  -60.2221 -8.14221 -10.5313
RightLeg  103.611 1.25307 -3.2444
RightFoot  -31.441 0.258877 2.66308
RightToes  -3.31784e-009 0 -3.6325e-017
Spine  51.8035 -0.57406 0.512202
Spine1  3.83031 -0.470676 -0.102782
HEad  -34.829 0.0465254 -5.38305
LeftShoulder1  0.920534 -0.957957 -13.6609
LeftArm  -15.7047 -47.899 -47.1284
LeftForeArm  39.6314 -52.6451 -11.5474
LeftHand  -0.0304989 5.24609 5.68043
RightShoulder  0.450464 -1.4929 15.832
RightArm  -0.937966 35.0677 46.615
RightForeArm  26.6691 56.482 14.7847
RightHand  -0.888587 7.50452 -8.31214
LeftUpLeg  -60.1666 7.34176 8.43458
LeftLeg  102.172 -2.34604 8.1183
LeftFoot  -28.4378 0.574042 2.67618
LeftToes  1.28511e-009 -3.60458e-011 6.16399e-011
171
root  -33.4536 26.3103 -0.0302259 -48.2959 -87.5583 45.0495
RightUpLeg  -58.088 -8.10809 -9.44144
RightLeg  97.6767 0.943637 -3.63618
RightFoot  -30.0605 0.164644 2.24299
RightToes  -3.31784e-009 0 -3.6325e-017
Spine  50.58 -0.552135 1.06142
Spine1  3.58703 -0.25822 -0.0130438
HEad  -36.4977 0.21441 -5.71687
LeftShoulder1  0.980313 -0.935888 -15.2412
LeftArm  -11.7145 -46.2059 -47.204
LeftForeArm  38.0342 -45.8323 -8.86393
LeftHand  0.0122392 6.2294 5.3306
RightShoulder  0.481161 -1.41705 16.5794
RightArm  4.308 32.0464 48.3615
RightForeArm  22.5488 48.3977 10.9734
RightHand  -0.613447 7.32004 -5.96243
LeftUpLeg  -57.7212 8.06781 7.97568
LeftLeg  96.3091 -1.45751 8.02257
LeftFoot  -27.4639 0.485356 2.25915
LeftToes  1.28511e-009 -3.60458e-011 6.16399e-011
